<svg width="100" height="100" viewBox="0 0 179 383" fill="none" xmlns="http://www.w3.org/2000/svg">
<path d="M11.3428 331V334.5H14.8428H58.8769H62.3769V331V241.324H138.422C167.111 241.324 190.961 236.106 209.755 225.419L209.762 225.415L209.77 225.41C228.435 214.675 242.317 200.211 251.287 182.03C260.309 163.983 264.792 143.97 264.792 122.057C264.792 100.14 260.308 80.1804 251.279 62.2444C242.184 44.1774 228.176 29.893 209.388 19.3983C190.592 8.71405 166.626 3.5 137.712 3.5L14.8428 3.5H11.3428V7V331ZM137.002 195.261H62.3769V49.5625H136.292C155.714 49.5625 170.924 52.8259 182.18 59.0667L182.191 59.0731L182.203 59.0795C193.552 65.2598 201.639 73.7186 206.625 84.4672L206.631 84.4807L206.638 84.494C211.83 95.4435 214.468 107.94 214.468 122.057C214.468 136.173 211.831 148.734 206.632 159.81L206.628 159.817L206.625 159.824C201.628 170.595 193.578 179.184 182.321 185.6C171.192 191.943 156.173 195.261 137.002 195.261Z" fill="#FAFAFA" stroke="#1C1D1E" stroke-width="7"/>
<path d="M263.257 358.909H253.243C253.172 358.08 252.983 357.329 252.675 356.654C252.379 355.979 251.965 355.399 251.432 354.914C250.911 354.417 250.278 354.038 249.532 353.778C248.787 353.505 247.94 353.369 246.993 353.369C245.336 353.369 243.933 353.772 242.785 354.577C241.649 355.382 240.785 356.536 240.193 358.039C239.613 359.542 239.323 361.347 239.323 363.454C239.323 365.68 239.619 367.544 240.211 369.048C240.814 370.539 241.684 371.664 242.821 372.421C243.957 373.167 245.324 373.54 246.922 373.54C247.834 373.54 248.65 373.427 249.372 373.202C250.095 372.966 250.722 372.628 251.255 372.19C251.787 371.752 252.219 371.226 252.551 370.61C252.894 369.983 253.125 369.278 253.243 368.497L263.257 368.568C263.139 370.107 262.707 371.675 261.961 373.273C261.216 374.86 260.156 376.327 258.783 377.677C257.422 379.014 255.735 380.092 253.723 380.908C251.71 381.725 249.372 382.133 246.709 382.133C243.371 382.133 240.376 381.417 237.725 379.985C235.085 378.553 232.996 376.446 231.457 373.664C229.93 370.882 229.167 367.479 229.167 363.454C229.167 359.406 229.948 355.997 231.51 353.227C233.073 350.445 235.18 348.344 237.831 346.924C240.483 345.492 243.442 344.776 246.709 344.776C249.006 344.776 251.118 345.089 253.048 345.717C254.977 346.344 256.67 347.261 258.126 348.469C259.582 349.664 260.754 351.138 261.642 352.89C262.529 354.642 263.068 356.648 263.257 358.909Z" fill="#ACD6E3"/>
<path d="M198.205 381.636V345.273H224.412V353.227H208.077V359.477H223.063V367.432H208.077V373.682H224.341V381.636H198.205Z" fill="#ACD6E3"/>
<path d="M162.885 353.227V345.273H194.49V353.227H183.552V381.636H173.822V353.227H162.885Z" fill="#ACD6E3"/>
<path d="M159.2 345.273V381.636H149.328V345.273H159.2Z" fill="#ACD6E3"/>
<path d="M126.65 381.636H112.658V345.273H126.508C130.248 345.273 133.48 346.001 136.202 347.457C138.937 348.901 141.044 350.984 142.523 353.707C144.015 356.417 144.76 359.667 144.76 363.455C144.76 367.242 144.021 370.498 142.541 373.22C141.061 375.931 138.966 378.014 136.256 379.47C133.545 380.914 130.343 381.636 126.65 381.636ZM122.53 373.256H126.295C128.094 373.256 129.627 372.966 130.893 372.386C132.172 371.806 133.142 370.805 133.805 369.385C134.48 367.964 134.817 365.988 134.817 363.455C134.817 360.921 134.474 358.945 133.787 357.524C133.113 356.104 132.118 355.103 130.805 354.523C129.502 353.943 127.904 353.653 126.01 353.653H122.53V373.256Z" fill="#ACD6E3"/>
<path d="M81.5547 381.636V345.273H107.762V353.227H91.4268V359.477H106.413V367.432H91.4268V373.682H107.691V381.636H81.5547Z" fill="#ACD6E3"/>
<path d="M48.1562 381.636V345.273H63.8523C66.5511 345.273 68.9126 345.764 70.9368 346.746C72.9609 347.729 74.5353 349.143 75.6598 350.99C76.7843 352.837 77.3466 355.05 77.3466 357.631C77.3466 360.235 76.7666 362.431 75.6065 364.218C74.4583 366.005 72.8426 367.355 70.7592 368.266C68.6877 369.178 66.267 369.634 63.4972 369.634H54.1222V361.963H61.5085C62.6686 361.963 63.657 361.821 64.4737 361.537C65.3023 361.241 65.9356 360.773 66.3736 360.134C66.8234 359.495 67.0483 358.66 67.0483 357.631C67.0483 356.589 66.8234 355.743 66.3736 355.092C65.9356 354.429 65.3023 353.943 64.4737 353.636C63.657 353.316 62.6686 353.156 61.5085 353.156H58.0284V381.636H48.1562ZM69.4631 364.946L78.554 381.636H67.8295L58.9517 364.946H69.4631Z" fill="#ACD6E3"/>
<path d="M15.3438 381.636V345.273H31.0398C33.7386 345.273 36.1001 345.805 38.1243 346.871C40.1484 347.936 41.7228 349.433 42.8473 351.363C43.9718 353.292 44.5341 355.547 44.5341 358.128C44.5341 360.732 43.9541 362.987 42.794 364.893C41.6458 366.799 40.0301 368.266 37.9467 369.296C35.8752 370.326 33.4545 370.841 30.6847 370.841H21.3097V363.17H28.696C29.8561 363.17 30.8445 362.969 31.6612 362.567C32.4898 362.152 33.1231 361.567 33.5611 360.809C34.0109 360.051 34.2358 359.158 34.2358 358.128C34.2358 357.086 34.0109 356.198 33.5611 355.464C33.1231 354.719 32.4898 354.151 31.6612 353.76C30.8445 353.357 29.8561 353.156 28.696 353.156H25.2159V381.636H15.3438Z" fill="#ACD6E3"/>
<path d="M218.617 118.13H204.235L210.683 112.281C212.395 110.728 212.395 108.211 210.683 106.658C208.971 105.105 206.196 105.105 204.484 106.658L191.837 118.13H170.581L180.039 108.908C181.687 107.301 181.588 104.785 179.815 103.288C179.088 102.675 178.193 102.333 177.275 102.248C176.719 102.223 164.712 102.247 164.712 102.247L178.765 89.4986H196.407C198.829 89.4986 200.791 87.7188 200.791 85.5221C200.791 83.3255 198.829 81.5456 196.407 81.5456H187.531L197.871 72.1664C199.582 70.6129 199.582 68.0955 197.871 66.542C196.158 64.9896 193.286 64.9896 191.574 66.542L181.017 76.0315V67.7604C181.017 65.5638 179.055 63.7839 176.633 63.7839C174.212 63.7839 172.25 65.5638 172.25 67.7604V83.9851L157.733 97.2422L157.491 85.2358C157.49 85.2167 157.511 85.1987 157.511 85.1796C157.49 84.2125 157.099 83.2492 156.301 82.4973C154.622 80.9163 151.755 80.8696 150.012 82.3945L140.689 90.4673V71.7936L153.237 60.4982C154.949 58.9447 154.998 56.4273 153.286 54.8744C151.573 53.3219 148.725 53.3219 147.013 54.8744L140.689 60.5454V47.6127C140.689 45.4161 138.727 43.6362 136.305 43.6362C133.884 43.6362 131.922 45.4161 131.922 47.6127V60.5459L125.768 54.8749C124.055 53.3225 121.329 53.3225 119.617 54.8749C117.905 56.4284 117.832 58.9458 119.544 60.4988L131.922 71.7942V90.5744L122.468 82.3696C120.709 80.8601 117.985 80.9285 116.319 82.5228C115.691 83.1251 115.336 83.8589 115.201 84.6197C115.118 84.9288 115.082 85.2496 115.083 85.5799L115.032 96.8356L100.362 83.6102V67.7604C100.362 65.5638 98.3997 63.7839 95.9783 63.7839C93.5568 63.7839 91.5948 65.5638 91.5948 67.7604V75.6572L81.6438 66.542C79.9313 64.9896 77.2054 64.9896 75.493 66.542C73.7811 68.0955 73.8056 70.6129 75.5175 72.1664L85.8811 81.5456H76.5929C74.1715 81.5456 72.2095 83.3255 72.2095 85.5221C72.2095 87.7188 74.1715 89.4986 76.5929 89.4986H94.648L109.11 102.618L95.634 103.059C93.2839 103.136 91.2365 104.88 91.2137 106.992C91.2114 107.051 91.0098 107.111 91.0098 107.17C91.0098 107.17 91.0098 107.174 91.0098 107.176C91.0098 107.18 91.2114 107.185 91.2114 107.189C91.2377 108.183 91.7696 109.17 92.6112 109.924L101.87 118.13H81.5754L68.9289 106.657C67.2164 105.105 64.4414 105.105 62.7295 106.657C61.0176 108.211 61.0176 110.728 62.7295 112.281L69.1761 118.129H54.3834C51.962 118.129 50 119.909 50 122.105C50 124.302 51.962 126.082 54.3834 126.082H69.0066L62.7295 131.776C61.0176 133.33 61.0176 135.847 62.7295 137.4C63.5858 138.176 64.7079 138.565 65.8295 138.565C66.9511 138.565 68.0732 138.176 68.9295 137.4L81.4053 126.083H101.877L92.9624 134.775C91.3137 136.382 91.4136 138.898 93.1863 140.395C94.0303 141.107 95.1016 141.46 96.1705 141.46C96.1904 141.46 96.2103 141.457 96.2307 141.457C96.2436 141.457 96.2565 141.459 96.2687 141.459C96.2793 141.459 96.2904 141.459 96.3009 141.459L109.162 141.393L94.478 154.713H76.5929C74.1715 154.713 72.2095 156.493 72.2095 158.69C72.2095 160.887 74.1715 162.666 76.5929 162.666H85.7111L75.542 171.891C73.8302 173.445 73.8302 175.962 75.542 177.515C76.3983 178.291 77.5204 178.68 78.642 178.68C79.7636 178.68 80.7882 178.291 81.6444 177.515L91.5948 168.401V176.452C91.5948 178.648 93.5568 180.428 95.9783 180.428C98.3997 180.428 100.362 178.648 100.362 176.452V160.448L115.233 147.045L115.804 159.977C115.891 162.122 117.86 163.85 120.206 163.807C121.004 163.793 121.869 163.561 122.727 162.989C123.348 162.575 131.923 154.606 131.923 154.606V173.367L119.666 184.574C117.953 186.127 118.002 188.645 119.714 190.198C120.57 190.974 121.716 191.363 122.838 191.363C123.959 191.363 124.996 190.974 125.852 190.198L131.923 184.614V197.66C131.923 199.856 133.885 201.636 136.306 201.636C138.727 201.636 140.689 199.856 140.689 197.66V184.24L147.355 190.198C148.211 190.974 149.381 191.363 150.503 191.363C151.625 191.363 152.771 190.974 153.627 190.198C155.339 188.645 155.254 186.127 153.542 184.574L140.689 172.992V154.064C140.689 154.064 148.713 160.901 149.98 162.004C151.246 163.107 152.284 163.727 153.794 163.727C153.802 163.727 153.811 163.727 153.82 163.727C156.241 163.727 158.192 161.817 158.178 159.62L157.999 147.057L172.25 160.074V176.452C172.25 178.648 174.212 180.428 176.634 180.428C179.055 180.428 181.017 178.648 181.017 176.452V168.026L191.575 177.515C192.431 178.291 193.601 178.68 194.723 178.68C195.845 178.68 196.991 178.291 197.847 177.515C199.559 175.962 199.571 173.444 197.859 171.891L187.702 162.666H196.407C198.829 162.666 200.791 160.887 200.791 158.69C200.791 156.493 198.829 154.713 196.407 154.713H178.935L163.89 141.065L177.367 140.624C177.415 140.623 177.462 140.616 177.509 140.613C177.527 140.612 177.544 140.611 177.562 140.609C179.886 140.44 181.675 138.642 181.59 136.507C181.539 135.222 180.818 134.105 179.746 133.413L171.648 126.083H192.008L204.483 137.4C205.339 138.177 206.461 138.565 207.583 138.565C208.705 138.565 209.827 138.177 210.683 137.401C212.395 135.848 212.395 133.33 210.683 131.777L204.406 126.083H218.617C221.038 126.083 223 124.303 223 122.107C223 119.91 221.038 118.13 218.617 118.13ZM166.772 110.167L158.606 118.13H147.205L155.973 110.175L166.772 110.167ZM148.896 94.421L149.104 105.026L140.689 112.616V101.513L148.896 94.421ZM123.796 94.464L131.922 101.528V112.241L123.783 104.814L123.796 94.464ZM106.027 110.677L117.578 110.3L126.209 118.13H114.345L106.027 110.677ZM106.252 133.493L113.852 126.083H126.039L117.949 133.421L106.252 133.493ZM124.146 150.524L123.647 139.368L131.922 131.817V143.272L124.146 150.524ZM149.252 150.347L140.689 143.201V131.441L149.13 139.054L149.252 150.347ZM166.887 133.009L155.423 133.383L147.375 126.083H159.235L166.887 133.009Z" fill="#ACD6E3"/>
<g clip-path="url(#clip0_2135_472)">
<g filter="url(#filter0_d_2135_472)">
<path d="M64 272.636C64 261.591 72.3296 252.636 82.6046 252.636H245.395C255.67 252.636 264 261.591 264 272.636V307.636C264 318.682 255.67 327.636 245.395 327.636H82.6046C72.3296 327.636 64 318.682 64 307.636V272.636Z" fill="white"/>
<path d="M82.6046 255.136H245.395C254.122 255.136 261.5 262.798 261.5 272.636V307.636C261.5 317.475 254.122 325.136 245.395 325.136H82.6046C73.8775 325.136 66.5 317.475 66.5 307.636V272.636C66.5 262.798 73.8775 255.136 82.6046 255.136Z" stroke="#5F79AB" stroke-width="5"/>
</g>
<g filter="url(#filter1_d_2135_472)">
<mask id="path-13-inside-1_2135_472" fill="white">
<path fill-rule="evenodd" clip-rule="evenodd" d="M245.395 253.636H82.6046C72.8433 253.636 64.9302 262.143 64.9302 272.636V307.636C64.9302 318.13 72.8433 326.636 82.6046 326.636H245.395C255.157 326.636 263.07 318.13 263.07 307.636V272.636C263.07 262.143 255.157 253.636 245.395 253.636ZM82.6046 252.636C72.3296 252.636 64 261.591 64 272.636V307.636C64 318.682 72.3296 327.636 82.6046 327.636H245.395C255.67 327.636 264 318.682 264 307.636V272.636C264 261.591 255.67 252.636 245.395 252.636H82.6046Z"/>
</mask>
<path fill-rule="evenodd" clip-rule="evenodd" d="M245.395 253.636H82.6046C72.8433 253.636 64.9302 262.143 64.9302 272.636V307.636C64.9302 318.13 72.8433 326.636 82.6046 326.636H245.395C255.157 326.636 263.07 318.13 263.07 307.636V272.636C263.07 262.143 255.157 253.636 245.395 253.636ZM82.6046 252.636C72.3296 252.636 64 261.591 64 272.636V307.636C64 318.682 72.3296 327.636 82.6046 327.636H245.395C255.67 327.636 264 318.682 264 307.636V272.636C264 261.591 255.67 252.636 245.395 252.636H82.6046Z" fill="black"/>
<path d="M82.6046 257.636H245.395V249.636H82.6046V257.636ZM68.9302 272.636C68.9302 264.075 75.32 257.636 82.6046 257.636V249.636C70.3667 249.636 60.9302 260.211 60.9302 272.636H68.9302ZM68.9302 307.636V272.636H60.9302V307.636H68.9302ZM82.6046 322.636C75.32 322.636 68.9302 316.198 68.9302 307.636H60.9302C60.9302 320.061 70.3667 330.636 82.6046 330.636V322.636ZM245.395 322.636H82.6046V330.636H245.395V322.636ZM259.07 307.636C259.07 316.198 252.68 322.636 245.395 322.636V330.636C257.633 330.636 267.07 320.061 267.07 307.636H259.07ZM259.07 272.636V307.636H267.07V272.636H259.07ZM245.395 257.636C252.68 257.636 259.07 264.075 259.07 272.636H267.07C267.07 260.211 257.633 249.636 245.395 249.636V257.636ZM68 272.636C68 263.522 74.8062 256.636 82.6046 256.636V248.636C69.8529 248.636 60 259.659 60 272.636H68ZM68 307.636V272.636H60V307.636H68ZM82.6046 323.636C74.8062 323.636 68 316.75 68 307.636H60C60 320.614 69.8529 331.636 82.6046 331.636V323.636ZM245.395 323.636H82.6046V331.636H245.395V323.636ZM260 307.636C260 316.75 253.194 323.636 245.395 323.636V331.636C258.147 331.636 268 320.614 268 307.636H260ZM260 272.636V307.636H268V272.636H260ZM245.395 256.636C253.194 256.636 260 263.522 260 272.636H268C268 259.659 258.147 248.636 245.395 248.636V256.636ZM82.6046 256.636H245.395V248.636H82.6046V256.636Z" fill="#3749A8" mask="url(#path-13-inside-1_2135_472)"/>
</g>
<path d="M144.405 271.636H183.595V274.636H144.405V271.636Z" fill="#050505"/>
<path d="M88.3243 301.636H239.676V305.636H88.3243V301.636Z" fill="black"/>
<path d="M88.3243 313.136H239.676V317.136H88.3243V313.136Z" fill="black"/>
</g>
<defs>
<filter id="filter0_d_2135_472" x="60" y="252.636" width="208" height="83" filterUnits="userSpaceOnUse" color-interpolation-filters="sRGB">
<feFlood flood-opacity="0" result="BackgroundImageFix"/>
<feColorMatrix in="SourceAlpha" type="matrix" values="0 0 0 0 0 0 0 0 0 0 0 0 0 0 0 0 0 0 127 0" result="hardAlpha"/>
<feOffset dy="4"/>
<feGaussianBlur stdDeviation="2"/>
<feComposite in2="hardAlpha" operator="out"/>
<feColorMatrix type="matrix" values="0 0 0 0 0 0 0 0 0 0 0 0 0 0 0 0 0 0 0.25 0"/>
<feBlend mode="normal" in2="BackgroundImageFix" result="effect1_dropShadow_2135_472"/>
<feBlend mode="normal" in="SourceGraphic" in2="effect1_dropShadow_2135_472" result="shape"/>
</filter>
<filter id="filter1_d_2135_472" x="60" y="252.636" width="208" height="83" filterUnits="userSpaceOnUse" color-interpolation-filters="sRGB">
<feFlood flood-opacity="0" result="BackgroundImageFix"/>
<feColorMatrix in="SourceAlpha" type="matrix" values="0 0 0 0 0 0 0 0 0 0 0 0 0 0 0 0 0 0 127 0" result="hardAlpha"/>
<feOffset dy="4"/>
<feGaussianBlur stdDeviation="2"/>
<feComposite in2="hardAlpha" operator="out"/>
<feColorMatrix type="matrix" values="0 0 0 0 0 0 0 0 0 0 0 0 0 0 0 0 0 0 0.25 0"/>
<feBlend mode="normal" in2="BackgroundImageFix" result="effect1_dropShadow_2135_472"/>
<feBlend mode="normal" in="SourceGraphic" in2="effect1_dropShadow_2135_472" result="shape"/>
</filter>
<clipPath id="clip0_2135_472">
<rect width="215" height="75" fill="white" transform="translate(64 252.636)"/>
</clipPath>
</defs>
</svg>
